<svg aria-hidden="true" style="position: absolute; width: 0; height: 0; overflow: hidden;" version="1.1" xmlns="http://www.w3.org/2000/svg" xmlns:xlink="http://www.w3.org/1999/xlink">
<defs>
<symbol id="icon-person" viewBox="0 0 32 32">
<path d="M16 16c2.947 0 5.333-2.387 5.333-5.333s-2.387-5.333-5.333-5.333c-2.947 0-5.333 2.387-5.333 5.333s2.387 5.333 5.333 5.333zM16 18.667c-3.56 0-10.667 1.787-10.667 5.333v1.333c0 0.733 0.6 1.333 1.333 1.333h18.667c0.733 0 1.333-0.6 1.333-1.333v-1.333c0-3.547-7.107-5.333-10.667-5.333z"></path>
</symbol>
<symbol id="icon-phone" viewBox="0 0 24 32">
<path d="M19.635 18.487l-2.451-0.28c-0.589-0.067-1.167 0.135-1.582 0.55l-1.775 1.775c-2.731-1.389-4.969-3.618-6.359-6.359l1.785-1.785c0.415-0.415 0.618-0.994 0.55-1.582l-0.28-2.432c-0.116-0.975-0.936-1.708-1.92-1.708h-1.669c-1.090 0-1.997 0.907-1.93 1.997 0.511 8.24 7.102 14.821 15.332 15.332 1.090 0.068 1.997-0.839 1.997-1.93v-1.669c0.010-0.975-0.724-1.795-1.698-1.911z"></path>
</symbol>
<symbol id="icon-email" viewBox="0 0 24 32">
<path d="M14 0H2C1.175 0 0.5075 0.675 0.5075 1.5L0.5 10.5C0.5 11.325 1.175 12 2 12H14C14.825 12 15.5 11.325 15.5 10.5V1.5C15.5 0.675 14.825 0 14 0ZM13.7 3.1875L8.3975 6.5025C8.1575 6.6525 7.8425 6.6525 7.6025 6.5025L2.3 3.1875C2.1125 3.0675 2 2.865 2 2.6475C2 2.145 2.5475 1.845 2.975 2.1075L8 5.25L13.025 2.1075C13.4525 1.845 14 2.145 14 2.6475C14 2.865 13.8875 3.0675 13.7 3.1875Z" fill="#2E2F42"/>
</symbol>
<symbol id="icon-checkbox" viewBox="0 0 32 32">
<path stroke-linejoin="miter" stroke-linecap="butt" stroke-miterlimit="4" stroke-width="2" d="M4 1h24c1.657 0 3 1.343 3 3v24c0 1.657-1.343 3-3 3h-24c-1.657 0-3-1.343-3-3v-24c0-1.657 1.343-3 3-3z"></path>
</symbol>
</defs>
</svg>
